<?xml version="1.0" standalone="no"?>
<!DOCTYPE svg PUBLIC "-//W3C//DTD SVG 20010904//EN"
 "http://www.w3.org/TR/2001/REC-SVG-20010904/DTD/svg10.dtd">
<svg version="1.0" xmlns="http://www.w3.org/2000/svg"
 width="1280.000000pt" height="720.000000pt" viewBox="0 0 1280.000000 720.000000"
 preserveAspectRatio="xMidYMid meet">
<metadata>
Created by potrace 1.16, written by Peter Selinger 2001-2019
</metadata>
<g transform="translate(0.000000,720.000000) scale(0.100000,-0.100000)"
fill="#000000" stroke="none">
<path d="M0 5835 c0 -1193 2 -1365 15 -1365 8 0 29 -7 47 -15 18 -8 80 -34
138 -59 92 -38 330 -141 385 -166 41 -19 214 -93 360 -154 183 -78 709 -302
750 -321 17 -7 125 -54 240 -103 396 -169 610 -262 665 -289 30 -14 75 -34
100 -44 60 -23 205 -85 255 -108 22 -11 101 -45 175 -76 74 -31 209 -90 300
-130 91 -39 207 -90 258 -112 l93 -40 -96 -94 c-137 -134 -150 -155 -149 -243
0 -72 23 -176 70 -319 45 -137 141 -311 253 -460 l104 -139 18 -196 c10 -108
22 -225 27 -260 5 -34 5 -65 1 -68 -10 -6 -77 5 -384 61 -132 24 -319 57 -415
74 -264 47 -324 58 -590 105 -135 25 -375 67 -535 96 -159 28 -335 60 -390 70
-55 11 -192 36 -305 55 -265 46 -557 99 -795 145 -234 45 -578 100 -584 95 -3
-4 -7 -405 -9 -891 l-2 -884 2439 0 c2315 0 2440 1 2445 18 2 9 7 32 11 49 8
41 20 41 53 2 15 -18 35 -40 45 -50 16 -18 58 -19 1085 -19 587 0 1062 4 1056
8 -6 4 -16 23 -23 43 -6 20 -51 106 -100 191 -89 155 -109 187 -316 503 -238
364 -367 591 -540 955 -59 124 -148 308 -197 410 -49 102 -106 223 -125 270
-19 47 -43 96 -52 110 -10 14 -62 113 -116 220 -165 329 -373 642 -542 815
-117 121 -270 206 -345 191 -35 -7 -35 3 0 36 29 29 119 71 125 60 2 -4 10
-29 17 -55 15 -57 30 -46 30 24 0 31 6 51 16 60 15 12 21 9 48 -26 17 -22 59
-69 93 -105 l63 -65 0 92 c0 127 5 137 76 151 31 7 78 12 103 13 l46 1 -44 9
c-25 5 -49 13 -54 18 -7 7 -6 52 1 133 7 68 12 156 12 196 0 41 3 72 8 70 4
-2 66 -42 137 -89 72 -47 177 -113 234 -145 57 -32 106 -65 109 -72 2 -8 -1
-38 -8 -68 -11 -47 -16 -54 -37 -54 -13 0 -37 -7 -52 -14 -24 -13 -35 -13 -82
-1 -30 8 -76 14 -104 14 -47 -2 -46 -2 19 -10 116 -13 146 -30 246 -137 81
-86 89 -97 70 -104 -11 -4 -20 -13 -20 -21 0 -16 90 -129 107 -135 19 -6 28
28 14 52 -6 11 21 -13 61 -55 40 -42 87 -102 103 -134 17 -32 53 -93 81 -134
130 -195 152 -228 169 -261 11 -19 56 -96 100 -170 160 -266 184 -308 300
-530 65 -124 121 -229 125 -235 26 -33 462 -943 530 -1105 116 -275 203 -472
184 -415 -32 95 -32 96 35 199 81 125 122 213 146 311 10 44 20 81 20 83 2 3
47 -15 205 -85 69 -30 161 -70 205 -90 44 -19 89 -39 100 -44 11 -5 83 -36
160 -69 77 -33 141 -63 142 -67 1 -5 6 -54 12 -111 12 -131 37 -187 122 -270
61 -60 63 -64 64 -115 0 -52 0 -52 -30 -49 -59 7 -891 158 -1095 200 -27 5
-39 15 -54 45 -10 21 -20 36 -22 34 -3 -2 14 -43 37 -90 41 -85 41 -87 26
-124 -8 -21 -40 -81 -71 -132 -31 -52 -56 -100 -56 -107 0 -7 -8 -15 -17 -17
-10 -3 676 -5 1525 -6 l1542 -1 0 148 0 148 -32 9 c-47 14 -60 56 -53 170 3
50 13 116 22 148 13 49 19 58 37 55 16 -2 20 -9 19 -28 -15 -171 -15 -190 -6
-190 16 0 23 25 23 76 0 25 5 65 11 90 11 41 14 44 45 44 l34 0 0 -87 c0 -55
-8 -116 -20 -162 -16 -60 -20 -107 -20 -242 0 -124 -3 -169 -12 -173 -7 -3 -4
-5 7 -3 19 2 20 12 26 197 4 137 11 211 23 250 9 30 16 69 16 87 0 55 17 37
23 -26 4 -32 20 -121 37 -197 17 -77 37 -177 44 -224 11 -79 14 -85 37 -88 15
-2 20 0 12 5 -7 5 -22 58 -33 118 -12 61 -33 157 -46 215 -14 58 -29 141 -34
186 -5 44 -11 97 -15 117 -15 80 43 19 101 -105 18 -38 34 -50 34 -25 0 7 -18
48 -40 91 -22 43 -40 82 -40 87 0 5 14 16 31 24 29 15 32 15 50 -1 29 -27 60
-81 70 -122 11 -47 -8 -263 -25 -280 -9 -10 -19 -7 -46 13 -36 27 -59 33 -42
13 13 -17 30 -102 45 -229 l12 -104 953 -3 952 -2 0 310 0 310 -27 -11 c-44
-17 -265 -96 -418 -149 -77 -27 -167 -58 -200 -70 -62 -22 -638 -220 -642
-220 -1 0 -9 24 -18 53 -10 28 -31 77 -47 108 -28 54 -29 63 -31 195 -2 130
-4 143 -30 197 -23 46 -45 70 -108 119 -43 34 -79 65 -79 70 0 13 48 106 84
163 18 28 56 93 86 145 30 52 68 116 85 141 l31 45 56 -45 c59 -48 125 -87
133 -80 2 3 -2 27 -10 54 -21 68 -20 69 31 30 25 -19 49 -35 54 -35 11 0 20
53 20 114 0 75 41 289 59 309 4 4 50 -13 102 -37 52 -25 126 -53 164 -61 39
-8 95 -22 125 -30 54 -15 141 -20 152 -9 3 3 -12 40 -33 82 -36 71 -91 204
-86 208 1 1 43 -18 92 -42 50 -24 96 -46 104 -49 7 -3 -13 23 -45 58 -34 36
-78 99 -104 149 l-45 86 28 139 c49 253 77 476 77 634 0 63 3 71 50 143 28 42
50 79 50 81 0 2 37 66 81 142 45 76 100 170 122 208 22 39 62 106 89 150 l48
81 0 1757 0 1757 -737 -2 -738 -3 -27 -295 c-45 -486 -48 -521 -58 -625 -29
-283 -71 -726 -100 -1055 -5 -63 -15 -164 -20 -225 -17 -188 -50 -556 -57
-637 -5 -70 -10 -82 -33 -80 -449 42 -694 37 -970 -18 -136 -28 -213 -60 -335
-141 l-102 -67 -12 37 c-12 40 -58 234 -91 386 -23 108 -65 288 -106 455 -15
58 -34 143 -44 190 -10 47 -33 144 -50 215 -89 370 -137 572 -155 650 -27 117
-44 191 -65 279 -19 81 -97 419 -105 456 -8 40 -17 77 -54 230 -22 91 -43 183
-48 205 l-9 40 -1521 3 -1522 2 48 -79 c27 -44 96 -150 154 -238 179 -271 203
-311 192 -321 -5 -6 -194 -6 -296 0 -38 2 -56 -3 -106 -34 -33 -20 -80 -42
-104 -47 -63 -15 -362 -14 -413 1 -99 29 -207 113 -251 196 l-26 47 6 -40 c3
-22 26 -82 51 -132 53 -108 103 -158 206 -208 l67 -32 -88 -74 c-211 -177
-361 -444 -433 -769 -20 -92 -23 -132 -23 -325 0 -137 5 -255 14 -312 12 -83
12 -95 -2 -115 -121 -176 -184 -262 -193 -265 -6 -2 -60 34 -121 79 -194 146
-612 463 -833 633 -118 91 -244 187 -280 212 -36 26 -99 75 -140 108 -41 33
-145 112 -230 176 -243 181 -269 200 -349 261 -42 31 -89 67 -106 80 -27 22
-87 68 -370 283 -44 33 -90 67 -101 75 -127 89 -1001 754 -1037 789 l-48 46
-514 3 -515 3 0 -1366z m6309 181 c38 -63 40 -70 26 -86 -14 -16 -14 -17 7
-13 19 4 29 -5 55 -49 61 -102 133 -240 133 -254 0 -2 -10 1 -22 8 -29 15
-318 27 -318 13 0 -10 -63 -55 -76 -55 -8 0 -33 -32 -34 -41 0 -3 11 -4 25 -2
23 5 24 3 19 -33 -3 -22 -10 -55 -15 -74 -14 -54 -11 -58 17 -25 23 28 24 28
18 6 -9 -34 -6 -155 5 -184 8 -21 18 -25 72 -30 155 -17 208 1 264 91 24 38
29 56 28 103 0 31 -6 66 -12 78 -19 34 5 25 35 -14 25 -33 26 -41 21 -105 -3
-39 -3 -70 1 -70 3 0 19 12 34 27 18 17 32 23 37 17 5 -5 23 -76 40 -159 17
-82 38 -171 46 -197 13 -44 12 -62 -11 -215 -43 -292 -63 -395 -80 -414 -29
-32 -193 -130 -277 -166 -146 -62 -301 -120 -364 -138 -100 -28 -133 -20 -306
80 -327 188 -450 292 -528 449 -56 115 -60 164 -24 346 22 114 26 159 24 286
l-2 151 91 184 c81 165 178 316 208 326 5 2 15 -11 22 -29 7 -18 29 -55 49
-83 43 -58 104 -231 123 -347 7 -43 16 -78 20 -78 3 0 13 14 21 30 l14 31 50
-63 c28 -34 57 -64 66 -66 17 -3 35 36 104 231 31 88 57 143 85 180 117 152
110 146 205 188 50 22 95 45 100 51 6 5 -8 1 -30 -10 -23 -11 -58 -24 -79 -27
-37 -7 -38 -7 -31 16 4 13 22 49 40 80 18 30 38 72 45 93 6 20 13 36 15 34 1
-2 21 -34 44 -72z m823 -1116 c14 -42 14 -214 0 -250 -12 -31 -67 -91 -106
-116 l-29 -18 6 94 c9 117 41 249 51 210 4 -14 2 -46 -3 -70 -13 -56 -13 -60
-1 -60 11 0 30 64 30 106 0 16 -7 39 -15 50 -15 20 -19 63 -9 101 6 22 7 22
35 6 17 -10 34 -32 41 -53z m266 -82 c47 -118 156 -674 197 -993 52 -416 42
-1051 -22 -1347 -9 -43 -19 -78 -22 -78 -3 0 -11 10 -17 23 -147 295 -209 409
-249 454 -44 50 -45 53 -55 150 -17 166 -21 174 -143 279 -56 49 -129 114
-162 145 -33 31 -91 83 -130 115 -100 83 -98 80 -68 137 37 66 53 78 53 38 0
-45 14 -38 43 22 55 116 113 355 151 617 14 93 19 108 43 129 121 105 240 225
289 291 32 43 61 77 65 74 4 -2 16 -27 27 -56z m-769 -808 l0 -309 -22 9 c-70
27 -123 53 -129 63 -4 7 -8 22 -8 35 0 13 -19 43 -45 71 -25 26 -45 56 -45 65
0 25 71 248 84 265 8 11 154 110 163 111 0 0 1 -139 2 -310z m4161 235 c36 -8
100 -27 143 -41 72 -24 77 -27 77 -54 0 -59 -5 -61 -83 -25 -146 66 -220 80
-432 80 -124 0 -213 -5 -255 -14 -64 -14 -203 -65 -228 -84 -7 -5 -15 -7 -18
-4 -4 3 21 23 54 45 66 43 217 100 296 113 81 13 371 3 446 -16z m-4370 -106
c-31 -118 -112 -357 -129 -378 l-18 -24 -68 49 c-177 127 -270 201 -265 209 3
5 48 24 100 42 52 18 160 59 240 91 80 33 146 58 148 57 2 -2 -2 -23 -8 -46z
m-544 -144 c38 -15 294 -199 350 -250 l32 -30 -49 -85 c-49 -83 -99 -194 -99
-220 0 -10 -3 -10 -15 0 -8 7 -15 17 -15 22 0 5 -11 24 -24 41 -13 18 -49 81
-81 142 -50 96 -95 166 -165 255 -17 22 -18 31 -9 70 17 80 17 80 75 55z
m4953 -36 c58 -10 109 -23 115 -29 7 -7 5 -10 -6 -10 -38 0 -24 -21 36 -55 71
-40 68 -35 90 -155 9 -47 32 -170 51 -275 63 -330 78 -445 96 -696 13 -193 0
-447 -32 -647 -23 -140 -22 -138 -84 -264 l-46 -93 43 46 c24 25 63 71 88 103
l45 58 8 -38 c5 -22 6 -97 3 -169 l-6 -130 -44 -40 c-103 -94 -278 -205 -408
-259 -46 -19 -152 -48 -237 -66 -150 -32 -155 -32 -215 -17 -132 32 -437 176
-626 295 -142 90 -208 151 -246 229 -27 54 -27 54 -20 216 4 89 11 349 15 577
10 490 19 560 112 850 33 105 136 325 192 413 30 46 46 60 101 87 36 17 68 35
72 41 3 6 42 9 94 8 48 -1 93 1 99 5 18 12 64 20 99 18 17 -1 44 -2 60 -2 37
-1 264 18 268 23 9 9 188 -6 283 -24z m-4423 -81 c45 -40 54 -67 44 -139 -5
-35 -10 -67 -10 -71 0 -21 -82 3 -123 35 -25 20 -14 57 30 103 28 30 33 42 28
65 -8 35 -3 36 31 7z m1632 -228 c75 -174 114 -342 152 -655 37 -308 33 -495
-16 -714 -50 -225 -120 -441 -141 -441 -10 0 -214 148 -260 188 l-33 29 69
204 c129 381 158 564 170 1062 5 197 7 377 4 400 -8 58 6 41 55 -73z m200
-114 c9 -19 93 -148 186 -287 93 -140 193 -290 221 -334 29 -44 112 -170 186
-280 l134 -200 0 -167 c0 -91 2 -165 5 -163 3 2 21 39 39 82 19 43 37 82 41
86 4 5 18 -6 30 -24 20 -27 25 -54 36 -185 27 -305 104 -604 220 -855 30 -63
54 -120 54 -125 0 -20 -93 -224 -103 -224 -21 0 -73 70 -100 135 -40 95 -72
143 -112 166 -26 16 -41 37 -65 96 -36 85 -39 116 -18 158 35 70 60 167 56
216 -5 45 -29 89 -50 89 -4 0 1 -9 11 -19 11 -11 23 -39 26 -64 6 -42 -14
-119 -66 -252 -10 -26 -7 -41 25 -122 20 -51 36 -103 36 -116 0 -13 -11 -46
-25 -73 -21 -40 -23 -53 -14 -71 10 -18 7 -32 -18 -85 -38 -81 -84 -133 -143
-163 -49 -25 -60 -24 -60 4 0 9 -5 33 -11 54 -8 30 -19 42 -59 62 -51 26 -85
64 -114 128 -16 35 -16 39 1 67 10 18 26 30 38 30 12 0 32 11 45 24 12 14 35
28 50 31 41 9 59 35 65 91 l4 49 -12 -46 c-16 -60 -34 -82 -63 -75 -18 5 -26
0 -36 -21 -10 -21 -22 -29 -45 -31 -20 -2 -34 -10 -38 -21 -3 -10 -14 -26 -25
-36 -17 -15 -24 -16 -45 -7 -45 21 -65 68 -65 153 0 45 5 80 12 87 20 20 55
13 77 -15 l20 -28 1 41 c0 30 6 47 25 64 16 15 25 34 25 54 0 17 4 46 9 64 6
18 6 30 1 27 -5 -3 -14 -30 -20 -61 l-12 -55 -33 28 c-18 15 -72 57 -120 93
-47 36 -112 85 -143 110 -31 25 -93 72 -137 104 -44 33 -82 61 -84 62 -2 2 26
92 62 201 80 241 131 435 158 603 17 104 17 443 0 555 -19 131 -57 301 -80
369 -12 33 -21 61 -21 63 0 12 23 -13 38 -41z m-1726 -351 c92 -183 153 -357
164 -462 7 -75 -3 -223 -15 -223 -6 0 -70 102 -99 160 -7 14 -19 36 -27 50 -8
13 -17 49 -21 80 -11 96 -64 371 -94 490 -16 63 -32 126 -35 140 -5 24 33 -47
127 -235z m5328 -771 c44 -38 60 -75 60 -143 0 -160 -72 -319 -192 -426 -52
-46 -126 -91 -134 -82 -3 3 7 56 22 118 15 63 39 173 53 244 25 121 29 131 55
144 35 16 72 3 86 -31 8 -22 9 -22 9 -2 1 35 -32 56 -81 52 l-43 -3 2 48 c2
54 14 74 58 93 45 20 70 17 105 -12z m-6775 -276 l132 -196 6 -184 c4 -100 11
-203 16 -228 5 -25 8 -46 7 -47 -8 -9 -148 209 -186 291 -81 172 -160 422
-160 507 0 37 21 63 44 56 5 -2 69 -91 141 -199z m-201 140 c28 -131 41 -179
74 -278 74 -219 124 -319 245 -492 l57 -83 -26 -89 c-14 -49 -43 -133 -65
-186 -21 -54 -39 -104 -40 -112 0 -7 -7 10 -14 37 -32 114 -247 481 -359 613
-49 57 -51 63 -66 206 -6 55 -17 140 -25 190 -9 56 -11 94 -5 100 11 11 202
115 212 116 4 0 10 -10 12 -22z m4643 -717 c-3 -9 -8 -24 -12 -34 -6 -15 -4
-16 20 -7 14 5 28 10 30 10 2 0 106 -164 163 -261 l22 -36 -88 -6 c-48 -4
-103 -9 -123 -13 -32 -5 -37 -3 -42 17 -4 13 -7 114 -6 224 l0 200 20 -39 c12
-21 19 -46 16 -55z m1180 -363 c-25 -35 -48 -74 -52 -86 -20 -65 -47 -112 -60
-105 -16 9 -195 182 -195 189 0 2 10 4 23 4 12 0 83 13 157 29 187 40 179 42
127 -31z m-404 17 c69 -25 83 -36 203 -151 71 -68 130 -124 132 -124 2 0 0 9
-3 20 -11 35 41 170 85 220 l40 45 30 -35 c17 -19 35 -51 40 -70 12 -47 50
-283 50 -313 l0 -25 -64 34 c-35 19 -69 41 -76 49 -17 20 -71 19 -109 -2 -17
-10 -56 -55 -87 -100 -32 -46 -61 -83 -66 -83 -16 0 -48 64 -105 210 -59 151
-134 311 -162 344 -15 18 -15 19 1 13 9 -3 50 -18 91 -32z m-5135 -270 c26
-29 45 -65 56 -103 20 -72 20 -93 1 -118 -8 -10 -15 -26 -15 -34 0 -8 -8 -31
-19 -50 -10 -19 -22 -46 -26 -60 -7 -22 -32 -58 -81 -114 -18 -20 -68 -17
-119 6 -30 13 -32 54 -3 52 14 -1 16 2 7 18 -10 18 -11 19 -23 2 -28 -37 -102
15 -90 63 7 25 63 41 76 21 5 -9 8 -8 8 5 0 11 15 37 34 59 40 46 98 161 123
242 9 31 20 56 24 56 4 0 25 -20 47 -45z m-112 -84 c-75 -174 -157 -253 -202
-193 -22 28 -16 40 29 68 54 33 130 107 168 162 17 23 32 42 34 42 2 0 -11
-35 -29 -79z"/>
<path d="M5355 5508 c5 -14 -66 -68 -90 -68 -7 0 -17 5 -20 10 -3 6 -11 10
-17 10 -6 0 -1 -11 11 -24 22 -23 22 -27 11 -98 -11 -69 -11 -78 10 -126 26
-61 40 -67 33 -14 -7 55 13 116 48 146 17 14 36 26 42 26 9 0 9 -2 1 -8 -6 -4
-21 -23 -33 -42 -25 -42 -29 -161 -8 -213 8 -18 12 -38 9 -46 -3 -9 2 -11 14
-8 11 3 46 13 79 23 74 20 90 34 127 109 24 48 28 68 24 103 -8 60 -38 113
-92 161 -40 35 -43 41 -25 41 27 0 58 -15 88 -43 13 -11 26 -18 29 -14 4 3
-15 20 -42 36 -45 29 -73 35 -136 31 -15 -1 -36 4 -47 10 -16 8 -20 8 -16 -2z"/>
<path d="M5895 4915 c-70 -15 -206 -66 -252 -95 -104 -63 -67 -356 63 -500 20
-22 62 -52 93 -68 53 -27 63 -28 124 -21 72 9 173 47 224 86 37 28 79 109 88
168 11 68 -19 179 -67 253 -53 82 -128 158 -175 177 -19 8 -36 15 -37 14 0 0
-28 -6 -61 -14z m99 -14 c10 -15 -133 -73 -220 -88 -129 -22 -144 -14 -52 30
42 21 101 44 130 51 60 17 134 20 142 7z"/>
<path d="M9620 2925 c0 -3 7 -22 15 -42 21 -50 19 -62 -20 -145 -43 -91 -58
-186 -38 -250 7 -23 20 -81 28 -126 19 -104 36 -138 80 -159 33 -16 38 -16 82
3 33 13 51 29 64 54 21 40 35 127 31 183 -3 37 -4 38 -37 31 -30 -5 -36 -3
-46 19 -21 47 8 127 46 127 7 0 16 -8 18 -17 3 -10 5 1 6 24 0 23 -4 54 -10
70 l-10 28 29 -28 c46 -44 84 -139 96 -239 l11 -88 26 43 c38 61 41 76 23 142
-20 78 -54 136 -123 209 -60 63 -117 95 -167 96 -24 0 -40 9 -63 35 -29 33
-41 42 -41 30z"/>
<path d="M10680 2873 c4 -16 11 -35 14 -43 4 -10 -12 -39 -44 -80 -48 -62 -50
-67 -49 -125 1 -33 -4 -91 -11 -128 -26 -147 8 -289 77 -322 53 -26 107 -15
153 30 51 50 83 118 88 189 l5 58 -26 -17 c-38 -25 -70 -16 -80 22 -19 66 15
119 70 110 l33 -6 0 45 c0 49 -29 117 -57 133 -16 9 -16 10 -2 11 33 0 85 -29
125 -72 78 -80 114 -179 114 -310 l0 -88 51 37 51 37 -4 65 c-9 114 -102 269
-219 361 -58 46 -101 60 -181 60 -45 0 -63 5 -78 20 -11 11 -20 25 -20 30 0 6
-4 10 -9 10 -6 0 -6 -11 -1 -27z"/>
<path d="M8706 2048 c-37 -77 -49 -172 -36 -271 7 -45 14 -84 16 -86 7 -7 4
31 -6 94 -19 117 26 296 78 303 48 7 69 -102 79 -428 6 -207 18 -309 18 -157
0 104 29 170 91 204 44 26 40 30 -11 9 -21 -9 -41 -28 -53 -52 l-20 -38 -6 29
c-3 17 -10 95 -16 173 -16 220 -31 272 -80 272 -25 0 -32 -7 -54 -52z"/>
<path d="M5630 3456 c0 -3 40 -45 89 -94 62 -63 98 -109 121 -155 38 -77 36
-98 -8 -109 -34 -9 -45 -43 -17 -54 26 -10 82 5 109 31 45 42 26 134 -44 203
-42 42 -250 190 -250 178z"/>
<path d="M5540 3285 c0 -13 11 -64 26 -113 14 -49 33 -129 42 -177 17 -83 19
-87 35 -71 9 10 17 32 17 50 0 31 -56 248 -79 309 -13 34 -41 36 -41 2z"/>
<path d="M6010 2840 c-11 -7 -12 -21 -2 -87 21 -134 25 -123 -90 -200 -126
-83 -110 -101 20 -23 102 61 98 62 138 -65 35 -116 36 -116 76 -53 48 74 94
111 127 103 14 -4 33 -13 42 -21 45 -41 52 -211 14 -360 -14 -54 -25 -102 -25
-106 0 -5 11 -8 24 -8 21 0 27 10 57 103 31 94 34 112 34 232 0 89 -4 140 -14
163 -29 68 -119 82 -217 32 -32 -16 -60 -27 -62 -26 -2 2 -10 24 -17 49 -13
42 -12 48 5 70 10 13 68 57 129 98 70 47 111 80 111 92 0 9 -3 17 -6 17 -3 0
-45 -29 -93 -64 -48 -35 -106 -73 -130 -86 -52 -26 -53 -25 -77 72 -18 74 -23
81 -44 68z"/>
<path d="M6565 1979 c-4 -6 17 -59 46 -117 29 -59 54 -110 56 -114 2 -4 -15
-19 -37 -33 -65 -41 -80 -61 -80 -105 0 -33 4 -42 22 -49 27 -10 90 3 146 30
42 21 45 24 46 69 1 27 11 29 79 16 32 -6 37 -5 37 12 0 28 -17 38 -94 52
l-68 13 -30 63 c-33 71 -30 89 23 132 16 13 29 28 29 33 0 17 -28 9 -58 -16
-17 -14 -34 -25 -40 -25 -5 0 -17 11 -26 25 -17 26 -40 33 -51 14z"/>
<path d="M6935 1189 c-35 -17 -75 -95 -75 -143 0 -55 26 -84 35 -39 11 53 39
97 69 108 25 8 31 6 56 -22 15 -17 38 -57 50 -89 42 -112 53 -190 54 -376 1
-98 4 -178 7 -178 23 0 32 42 38 172 11 246 -11 385 -78 490 -45 70 -108 102
-156 77z"/>
</g>
</svg>
